# xmcd
#
# Track frame offsets:
#	150
#	8116
#	24790
#	35539
#	46542
#	61558
#	75708
#	94147
#	114378
#	125955
#	143137
#	162492
#
# Disc length: 2363 seconds
#
# Revision: 0
# Processed by: cddbd v1.5.1PL0 Copyright (c) Steve Scherf et al.
# Submitted via: dBpowerAMP V4.0
#
DISCID=8d09390c
DTITLE=TÝKA - Türk Dunyasý Müzikleri
DYEAR=2003
DGENRE=Folklore
TTITLE0=ADAY
TTITLE1=MÝNGÝTAV
TTITLE2=URALIM
TTITLE3=KATCAZAM-KIRGIZÝSTAN
TTITLE4=SAVTI SUVARE-ÖZBEKÝSTAN
TTITLE5=GETME-AZERBEYCAN
TTITLE6=MARÝKIZ-GAGAVUZ
TTITLE7=HASRET ÇEKTÝM-UYGUR TÜRKLERÝ
TTITLE8=BEJÝNDEN-TUVA
TTITLE9=AYRILMAGIZ-TATRÝSTAN
TTITLE10=KÜÞT DEPTÝ-TÜRKMENÝSTAN
TTITLE11=ÞEHNAZ ÞARKI-TÜRKÝYE
EXTD=
EXTT0=
EXTT1=
EXTT2=
EXTT3=
EXTT4=
EXTT5=
EXTT6=
EXTT7=
EXTT8=
EXTT9=
EXTT10=
EXTT11=
PLAYORDER=
